<mxfile host="app.diagrams.net" modified="2022-02-15T09:08:23.103Z" agent="5.0 (Macintosh; Intel Mac OS X 10_15_7) AppleWebKit/537.36 (KHTML, like Gecko) Chrome/98.0.4758.80 Safari/537.36 Edg/98.0.1108.43" etag="3F9JXT9rpz31ae6qgi9i" version="16.5.6" type="github">
  <diagram id="mZCeL3TtuJ6y8p_ebfG8" name="第 1 页">
    <mxGraphModel dx="1123" dy="699" grid="1" gridSize="10" guides="1" tooltips="1" connect="1" arrows="1" fold="1" page="1" pageScale="1" pageWidth="827" pageHeight="1169" math="0" shadow="0">
      <root>
        <mxCell id="0" />
        <mxCell id="1" parent="0" />
        <mxCell id="AJO2Z7t3AOlEYkgQesFq-6" value="dsd&amp;nbsp;" style="rounded=1;whiteSpace=wrap;html=1;fillColor=#A9C4EB;" vertex="1" parent="1">
          <mxGeometry x="220" y="200" width="120" height="60" as="geometry" />
        </mxCell>
      </root>
    </mxGraphModel>
  </diagram>
</mxfile>
